<svg xmlns="http://www.w3.org/2000/svg" width="39" height="31" viewBox="0 0 39 31">
  <defs>
    <style>
      .cls-1 {
        fill: #ff0036;
        fill-rule: evenodd;
      }
    </style>
  </defs>
  <path id="icon11.svg" class="cls-1" d="M707.527,8128a8.31,8.31,0,0,1,6.324,2.46,13.053,13.053,0,0,0,4.1-1.35l1-.54a7.839,7.839,0,0,1-2.6,3.68,3.651,3.651,0,0,1-.879.61v0.02a15.207,15.207,0,0,0,4.529-1.2v0.02a12.792,12.792,0,0,1-2.713,3.05c-0.417.32-.833,0.65-1.249,0.97a22.044,22.044,0,0,1-.371,5.03c-2,8.8-7.293,14.77-15.675,17.33a24.409,24.409,0,0,1-11.321.46,30.171,30.171,0,0,1-4.7-1.51,19,19,0,0,1-2.264-1.14l-0.7-.42a13.4,13.4,0,0,0,2.557.09c0.787-.12,1.558-0.09,2.284-0.24a16.741,16.741,0,0,0,4.8-1.7,9.262,9.262,0,0,0,2.166-1.39,7.076,7.076,0,0,1-2.381-.42,7.958,7.958,0,0,1-5.075-5.02c0.784,0.09,3.044.29,3.572-.15a5.836,5.836,0,0,1-2.616-1.03,7.5,7.5,0,0,1-3.767-6.71c0.273,0.13.547,0.26,0.82,0.38a8.22,8.22,0,0,0,1.679.46,2.354,2.354,0,0,0,1.093.1H686.1c-0.4-.46-1.06-0.77-1.464-1.26a7.894,7.894,0,0,1-1.8-7.11,8.98,8.98,0,0,1,.859-2.04c0.013,0.01.026,0.01,0.039,0.02a4.878,4.878,0,0,0,.722.82,14.6,14.6,0,0,0,2.381,2.23,23.76,23.76,0,0,0,9.78,4.63,15.4,15.4,0,0,0,3.591.46,7.137,7.137,0,0,1,.039-3.68,7.756,7.756,0,0,1,4.529-5.26,10.244,10.244,0,0,1,1.776-.54C706.876,8128.08,707.2,8128.04,707.527,8128Z" transform="translate(-681 -8128)"/>
</svg>
